<?xml version="1.0" encoding="utf-8"?>
<!-- Generator: Adobe Illustrator 27.9.0, SVG Export Plug-In . SVG Version: 6.00 Build 0)  -->
<svg version="1.1" xmlns="http://www.w3.org/2000/svg" xmlns:xlink="http://www.w3.org/1999/xlink" x="0px" y="0px"
	 viewBox="0 0 240 240" style="enable-background:new 0 0 240 240;" xml:space="preserve">
<style type="text/css">
	.st0{display:none;}
	.st1{display:inline;}
	.st2{fill:none;stroke:#D0D2D3;stroke-width:0.2;stroke-miterlimit:10;}
	.st3{fill:#C6E8F9;}
	.st4{fill:none;stroke:#1A2733;stroke-width:2.5;stroke-miterlimit:10;}
	.st5{fill:#89D1FF;stroke:#1A2733;stroke-width:2.5;stroke-miterlimit:10;}
	.st6{fill:#0070F2;stroke:#1A2733;stroke-width:2.5;stroke-miterlimit:10;}
	.st7{fill:none;stroke:#1A2733;stroke-width:10;stroke-miterlimit:10;}
	.st8{fill:#89D1FF;}
	.st9{fill:#0070F2;}
	.st10{fill:#1A2733;}
</style>
<g id="Grid" class="st0">
	<g class="st1">
		<circle class="st2" cx="120.1" cy="120.1" r="92.4"/>
		<g>
			<rect x="0.1" y="0.3" class="st3" width="15.7" height="239.7"/>
			<rect x="224.2" y="0.3" class="st3" width="15.6" height="239.7"/>
			
				<rect x="112" y="-112" transform="matrix(-1.836970e-16 1 -1 -1.836970e-16 127.7643 -112.0467)" class="st3" width="15.7" height="239.7"/>
			
				<rect x="112" y="112.2" transform="matrix(-1.836970e-16 1 -1 -1.836970e-16 351.9652 112.1542)" class="st3" width="15.8" height="239.7"/>
		</g>
		<g>
			<rect x="0.1" y="0.1" class="st2" width="239.8" height="239.8"/>
			<line class="st2" x1="0.1" y1="235.9" x2="239.9" y2="235.9"/>
			<line class="st2" x1="0.1" y1="232" x2="239.9" y2="232"/>
			<line class="st2" x1="0.1" y1="228.1" x2="239.9" y2="228.1"/>
			<line class="st2" x1="0.1" y1="224.1" x2="239.9" y2="224.1"/>
			<line class="st2" x1="0.1" y1="220.2" x2="239.9" y2="220.2"/>
			<line class="st2" x1="0.1" y1="216.3" x2="239.9" y2="216.3"/>
			<line class="st2" x1="0.1" y1="212.4" x2="239.9" y2="212.4"/>
			<line class="st2" x1="0.1" y1="208.4" x2="239.9" y2="208.4"/>
			<line class="st2" x1="0.1" y1="204.5" x2="239.9" y2="204.5"/>
			<line class="st2" x1="0.1" y1="200.6" x2="239.9" y2="200.6"/>
			<line class="st2" x1="0.1" y1="196.6" x2="239.9" y2="196.6"/>
			<line class="st2" x1="0.1" y1="192.7" x2="239.9" y2="192.7"/>
			<line class="st2" x1="0.1" y1="188.8" x2="239.9" y2="188.8"/>
			<line class="st2" x1="0.1" y1="184.8" x2="239.9" y2="184.8"/>
			<line class="st2" x1="0.1" y1="180.9" x2="239.9" y2="180.9"/>
			<line class="st2" x1="0.1" y1="177" x2="239.9" y2="177"/>
			<line class="st2" x1="0.1" y1="173.1" x2="239.9" y2="173.1"/>
			<line class="st2" x1="0.1" y1="169.1" x2="239.9" y2="169.1"/>
			<line class="st2" x1="0.1" y1="165.2" x2="239.9" y2="165.2"/>
			<line class="st2" x1="0.1" y1="161.3" x2="239.9" y2="161.3"/>
			<line class="st2" x1="0.1" y1="157.3" x2="239.9" y2="157.3"/>
			<line class="st2" x1="0.1" y1="153.4" x2="239.9" y2="153.4"/>
			<line class="st2" x1="0.1" y1="149.5" x2="239.9" y2="149.5"/>
			<line class="st2" x1="0.1" y1="145.5" x2="239.9" y2="145.5"/>
			<line class="st2" x1="0.1" y1="141.6" x2="239.9" y2="141.6"/>
			<line class="st2" x1="0.1" y1="137.7" x2="239.9" y2="137.7"/>
			<line class="st2" x1="0.1" y1="133.7" x2="239.9" y2="133.7"/>
			<line class="st2" x1="0.1" y1="129.8" x2="239.9" y2="129.8"/>
			<line class="st2" x1="0.1" y1="125.9" x2="239.9" y2="125.9"/>
			<line class="st2" x1="0.1" y1="122" x2="239.9" y2="122"/>
			<line class="st2" x1="0.1" y1="118" x2="239.9" y2="118"/>
			<line class="st2" x1="0.1" y1="114.1" x2="239.9" y2="114.1"/>
			<line class="st2" x1="0.1" y1="110.2" x2="239.9" y2="110.2"/>
			<line class="st2" x1="0.1" y1="106.2" x2="239.9" y2="106.2"/>
			<line class="st2" x1="0.1" y1="102.3" x2="239.9" y2="102.3"/>
			<line class="st2" x1="0.1" y1="98.4" x2="239.9" y2="98.4"/>
			<line class="st2" x1="0.1" y1="94.4" x2="239.9" y2="94.4"/>
			<line class="st2" x1="0.1" y1="90.5" x2="239.9" y2="90.5"/>
			<line class="st2" x1="0.1" y1="86.6" x2="239.9" y2="86.6"/>
			<line class="st2" x1="0.1" y1="82.6" x2="239.9" y2="82.6"/>
			<line class="st2" x1="0.1" y1="78.7" x2="239.9" y2="78.7"/>
			<line class="st2" x1="0.1" y1="74.8" x2="239.9" y2="74.8"/>
			<line class="st2" x1="0.1" y1="70.9" x2="239.9" y2="70.9"/>
			<line class="st2" x1="0.1" y1="66.9" x2="239.9" y2="66.9"/>
			<line class="st2" x1="0.1" y1="63" x2="239.9" y2="63"/>
			<line class="st2" x1="0.1" y1="59.1" x2="239.9" y2="59.1"/>
			<line class="st2" x1="0.1" y1="55.1" x2="239.9" y2="55.1"/>
			<line class="st2" x1="0.1" y1="51.2" x2="239.9" y2="51.2"/>
			<line class="st2" x1="0.1" y1="47.3" x2="239.9" y2="47.3"/>
			<line class="st2" x1="0.1" y1="43.3" x2="239.9" y2="43.3"/>
			<line class="st2" x1="0.1" y1="39.4" x2="239.9" y2="39.4"/>
			<line class="st2" x1="0.1" y1="35.5" x2="239.9" y2="35.5"/>
			<line class="st2" x1="0.1" y1="31.6" x2="239.9" y2="31.6"/>
			<line class="st2" x1="0.1" y1="27.6" x2="239.9" y2="27.6"/>
			<line class="st2" x1="0.1" y1="23.7" x2="239.9" y2="23.7"/>
			<line class="st2" x1="0.1" y1="19.8" x2="239.9" y2="19.8"/>
			<line class="st2" x1="0.1" y1="15.8" x2="239.9" y2="15.8"/>
			<line class="st2" x1="0.1" y1="11.9" x2="239.9" y2="11.9"/>
			<line class="st2" x1="0.1" y1="8" x2="239.9" y2="8"/>
			<line class="st2" x1="0.1" y1="4" x2="239.9" y2="4"/>
			<line class="st2" x1="236" y1="0.1" x2="236" y2="239.9"/>
			<line class="st2" x1="232" y1="0.1" x2="232" y2="239.9"/>
			<line class="st2" x1="228.1" y1="0.1" x2="228.1" y2="239.9"/>
			<line class="st2" x1="224.2" y1="0.1" x2="224.2" y2="239.9"/>
			<line class="st2" x1="220.2" y1="0.1" x2="220.2" y2="239.9"/>
			<line class="st2" x1="216.3" y1="0.1" x2="216.3" y2="239.9"/>
			<line class="st2" x1="212.4" y1="0.1" x2="212.4" y2="239.9"/>
			<line class="st2" x1="208.5" y1="0.1" x2="208.5" y2="239.9"/>
			<line class="st2" x1="204.5" y1="0.1" x2="204.5" y2="239.9"/>
			<line class="st2" x1="200.6" y1="0.1" x2="200.6" y2="239.9"/>
			<line class="st2" x1="196.7" y1="0.1" x2="196.7" y2="239.9"/>
			<line class="st2" x1="192.7" y1="0.1" x2="192.7" y2="239.9"/>
			<line class="st2" x1="188.8" y1="0.1" x2="188.8" y2="239.9"/>
			<line class="st2" x1="184.9" y1="0.1" x2="184.9" y2="239.9"/>
			<line class="st2" x1="180.9" y1="0.1" x2="180.9" y2="239.9"/>
			<line class="st2" x1="177" y1="0.1" x2="177" y2="239.9"/>
			<line class="st2" x1="173.1" y1="0.1" x2="173.1" y2="239.9"/>
			<line class="st2" x1="169.1" y1="0.1" x2="169.1" y2="239.9"/>
			<line class="st2" x1="165.2" y1="0.1" x2="165.2" y2="239.9"/>
			<line class="st2" x1="161.3" y1="0.1" x2="161.3" y2="239.9"/>
			<line class="st2" x1="157.4" y1="0.1" x2="157.4" y2="239.9"/>
			<line class="st2" x1="153.4" y1="0.1" x2="153.4" y2="239.9"/>
			<line class="st2" x1="149.5" y1="0.1" x2="149.5" y2="239.9"/>
			<line class="st2" x1="145.6" y1="0.1" x2="145.6" y2="239.9"/>
			<line class="st2" x1="141.6" y1="0.1" x2="141.6" y2="239.9"/>
			<line class="st2" x1="137.7" y1="0.1" x2="137.7" y2="239.9"/>
			<line class="st2" x1="133.8" y1="0.1" x2="133.8" y2="239.9"/>
			<line class="st2" x1="129.8" y1="0.1" x2="129.8" y2="239.9"/>
			<line class="st2" x1="125.9" y1="0.1" x2="125.9" y2="239.9"/>
			<line class="st2" x1="122" y1="0.1" x2="122" y2="239.9"/>
			<line class="st2" x1="118.1" y1="0.1" x2="118.1" y2="239.9"/>
			<line class="st2" x1="114.1" y1="0.1" x2="114.1" y2="239.9"/>
			<line class="st2" x1="110.2" y1="0.1" x2="110.2" y2="239.9"/>
			<line class="st2" x1="106.3" y1="0.1" x2="106.3" y2="239.9"/>
			<line class="st2" x1="102.3" y1="0.1" x2="102.3" y2="239.9"/>
			<line class="st2" x1="98.4" y1="0.1" x2="98.4" y2="239.9"/>
			<line class="st2" x1="94.5" y1="0.1" x2="94.5" y2="239.9"/>
			<line class="st2" x1="90.5" y1="0.1" x2="90.5" y2="239.9"/>
			<line class="st2" x1="86.6" y1="0.1" x2="86.6" y2="239.9"/>
			<line class="st2" x1="82.7" y1="0.1" x2="82.7" y2="239.9"/>
			<line class="st2" x1="78.7" y1="0.1" x2="78.7" y2="239.9"/>
			<line class="st2" x1="74.8" y1="0.1" x2="74.8" y2="239.9"/>
			<line class="st2" x1="70.9" y1="0.1" x2="70.9" y2="239.9"/>
			<line class="st2" x1="67" y1="0.1" x2="67" y2="239.9"/>
			<line class="st2" x1="63" y1="0.1" x2="63" y2="239.9"/>
			<line class="st2" x1="59.1" y1="0.1" x2="59.1" y2="239.9"/>
			<line class="st2" x1="55.2" y1="0.1" x2="55.2" y2="239.9"/>
			<line class="st2" x1="51.2" y1="0.1" x2="51.2" y2="239.9"/>
			<line class="st2" x1="47.3" y1="0.1" x2="47.3" y2="239.9"/>
			<line class="st2" x1="43.4" y1="0.1" x2="43.4" y2="239.9"/>
			<line class="st2" x1="39.4" y1="0.1" x2="39.4" y2="239.9"/>
			<line class="st2" x1="35.5" y1="0.1" x2="35.5" y2="239.9"/>
			<line class="st2" x1="31.6" y1="0.1" x2="31.6" y2="239.9"/>
			<line class="st2" x1="27.7" y1="0.1" x2="27.7" y2="239.9"/>
			<line class="st2" x1="23.7" y1="0.1" x2="23.7" y2="239.9"/>
			<line class="st2" x1="19.8" y1="0.1" x2="19.8" y2="239.9"/>
			<line class="st2" x1="15.9" y1="0.1" x2="15.9" y2="239.9"/>
			<line class="st2" x1="11.9" y1="0.1" x2="11.9" y2="239.9"/>
			<line class="st2" x1="8" y1="0.1" x2="8" y2="239.9"/>
			<line class="st2" x1="4.1" y1="0.1" x2="4.1" y2="239.9"/>
		</g>
	</g>
</g>
<g id="Live_Stroke" class="st0">
	<g class="st1">
		<path class="st4" d="M118,176.3c1.4,1.4,2.3,2.3,2.3,2.3c3.1,3.1,8,3.1,11.1,0c3.1-3.1,3.1-8,0-11.1l-9.6-9.6l12.9,12.9
			c3.1,3.1,8,3.1,11.1,0c3.1-3.1,3.1-8,0-11.1L133.3,147c0,0,13.9,13.9,13.9,13.9c3.1,3.1,8,3.1,11.1,0c3.1-3.1,3.1-8,0-11.1
			l-13.6-13.6l11,11c3.1,3.1,8,3.1,11.1,0c3.1-3.1,3.1-8,0-11.1l-37.4-37.4"/>
		
			<rect x="19.3" y="70.1" transform="matrix(0.7071 -0.7071 0.7071 0.7071 -43.435 60.4342)" class="st4" width="63.9" height="25"/>
		
			<rect x="172.4" y="50.7" transform="matrix(0.7071 -0.7071 0.7071 0.7071 -4.2938 154.9316)" class="st5" width="25" height="63.9"/>
		<circle class="st6" cx="37.5" cy="96.4" r="5.9"/>
		<g>
			<line class="st7" x1="152.9" y1="74.3" x2="191.2" y2="112.6"/>
		</g>
		<g>
			<line class="st7" x1="83.2" y1="74.3" x2="44.9" y2="112.6"/>
		</g>
		<line class="st4" x1="42.5" y1="108.6" x2="69.6" y2="135.7"/>
		<path class="st4" d="M118.1,87.3l-2.1-2.1c-1.4-1.5-3.5-2.5-5.7-2.5l-20.3,0L79.4,72.2"/>
		<line class="st4" x1="166.5" y1="135.7" x2="193.6" y2="108.6"/>
		<path class="st4" d="M156.7,72.2l-10.5,10.5l-20.3,0c-2.2,0-4.2,0.9-5.6,2.4l-15.6,15.6c-3.1,3.1-3.1,8,0,11.1s8,3.1,11.1,0
			l13.4-13.4h12.5"/>
		<g>
			<path class="st4" d="M119.6,163.6c-3.1-3.1-8-3.1-11.1,0c0,0-3.9,3.9-3.9,3.9c-3.1,3.1-3.1,8,0,11.1c3.1,3.1,8,3.1,11.1,0
				c0,0,3.9-3.9,3.9-3.9C122.7,171.6,122.7,166.7,119.6,163.6z"/>
			<path class="st4" d="M98,140.6c-3.1-3.1-8-3.1-11.1,0c-0.1,0.1-9.1,9.2-9.1,9.2c-3.1,3.1-3.1,8,0,11.1c3.1,3.1,8,3.1,11.1,0
				c0,0,9-9,9.1-9.2C101.1,148.7,101.1,143.7,98,140.6z"/>
			<path class="st4" d="M84.3,132.1c-3.1-3.1-8-3.1-11.1,0c-0.1,0.1-3.9,3.9-3.9,3.9c-3.1,3.1-3.1,8,0,11.1c3.1,3.1,8,3.1,11.1,0
				c0,0,3.9-3.9,3.9-3.9C87.4,140.2,87.4,135.2,84.3,132.1z"/>
			<path class="st4" d="M109.8,151.1c-3.1-3.1-8-3.1-11.1,0c-0.2,0.2-8.5,8.5-8.5,8.5c-3.1,3.1-3.1,8,0,11.1c3.1,3.1,8,3.1,11.1,0
				c0,0,8.3-8.3,8.5-8.5C112.9,159.2,112.9,154.2,109.8,151.1z"/>
		</g>
	</g>
</g>
<g id="Agreement">
	<g>
		
			<rect x="172.4" y="50.7" transform="matrix(0.7071 -0.7071 0.7071 0.7071 -4.2938 154.9316)" class="st8" width="25" height="63.9"/>
		<circle class="st9" cx="37.5" cy="96.4" r="5.9"/>
		<g>
			<path class="st10" d="M37.5,89.3c-3.9,0-7.1,3.2-7.1,7.1s3.2,7.1,7.1,7.1c3.9,0,7.1-3.2,7.1-7.1S41.4,89.3,37.5,89.3z
				 M37.5,101.1c-2.6,0-4.6-2.1-4.6-4.6s2.1-4.6,4.6-4.6c2.6,0,4.6,2.1,4.6,4.6S40,101.1,37.5,101.1z"/>
			<path class="st10" d="M171.1,49.4l-19.5,19.5l3.3,3.3l-9.2,9.2l-19.8,0c-2.5,0-4.8,1-6.5,2.8l-1.3,1.3l-1.2-1.2
				c-1.7-1.9-4.1-2.9-6.6-2.9l-19.8,0l-9.2-9.2l3.3-3.3L65,49.4l-47,47l19.5,19.5l5.2-5.2l25.1,25.1c-3,3.6-2.9,8.9,0.5,12.3
				c1.7,1.7,4,2.7,6.4,2.7c0,0,0,0,0,0c0.2,0,0.5,0,0.7,0c-2.1,3.5-1.7,8.1,1.4,11.1c1.8,1.8,4.1,2.7,6.4,2.7c1.2,0,2.3-0.2,3.4-0.7
				c-0.1,0.5-0.1,0.9-0.1,1.4c0,2.4,0.9,4.7,2.7,6.4c1.7,1.7,4,2.7,6.4,2.7c0,0,0,0,0,0c1.9,0,3.8-0.6,5.3-1.7c0,0.2,0,0.3,0,0.5
				c0,2.4,0.9,4.7,2.7,6.4c1.7,1.7,4,2.7,6.4,2.7c0,0,0,0,0,0c2.4,0,4.7-0.9,6.4-2.7l1.4-1.4l1.4,1.4c1.7,1.7,4,2.7,6.4,2.7
				c2.4,0,4.7-0.9,6.4-2.7c1.7-1.7,2.7-4,2.7-6.4c0-0.2,0-0.3,0-0.5c3.6,2.6,8.6,2.2,11.8-1c1.7-1.7,2.7-4,2.7-6.4
				c0-0.5,0-0.9-0.1-1.4c3.3,1.3,7.2,0.7,9.9-2c3-3,3.5-7.6,1.4-11.1c2.6,0.2,5.3-0.8,7.1-2.6c1.7-1.7,2.7-4,2.7-6.4
				c0-2.2-0.8-4.2-2.2-5.9l25.1-25.1l5.2,5.2l19.5-19.5L171.1,49.4z M37.5,112.3L21.6,96.4L65,53l15.9,15.9L37.5,112.3z M74.8,148.2
				L74.8,148.2c-1.8,0-3.4-0.7-4.7-1.9c-2.6-2.6-2.6-6.8,0-9.3c0,0,3.8-3.8,3.9-3.9c1.2-1.2,2.9-1.9,4.7-1.9s3.4,0.7,4.7,1.9
				s1.9,2.9,1.9,4.7s-0.7,3.4-1.9,4.7c-0.1,0.1-3.9,3.9-3.9,3.9C78.2,147.5,76.6,148.2,74.8,148.2z M78.7,160
				c-2.6-2.6-2.6-6.8,0-9.3c0,0,9-9,9.1-9.2c1.3-1.3,3-1.9,4.7-1.9c1.7,0,3.4,0.6,4.7,1.9c2.6,2.6,2.6,6.8,0,9.3
				C97,151,88,160,88,160C85.4,162.6,81.2,162.6,78.7,160z M100.4,169.9c-1.2,1.2-2.9,1.9-4.7,1.9c0,0,0,0,0,0
				c-1.8,0-3.4-0.7-4.7-1.9c-1.2-1.2-1.9-2.9-1.9-4.7s0.7-3.4,1.9-4.7c0,0,8.3-8.3,8.5-8.5c1.3-1.3,3-1.9,4.7-1.9s3.4,0.6,4.7,1.9
				c1.2,1.2,1.9,2.9,1.9,4.7s-0.7,3.4-1.9,4.7C108.7,161.6,100.4,169.9,100.4,169.9z M118.8,173.8l-3.9,3.9
				c-1.2,1.2-2.9,1.9-4.7,1.9c0,0,0,0,0,0c-1.8,0-3.4-0.7-4.7-1.9c-1.2-1.2-1.9-2.9-1.9-4.7s0.7-3.4,1.9-4.7c0,0,3.9-3.9,3.9-3.9
				c1.3-1.3,3-1.9,4.7-1.9c1.7,0,3.4,0.6,4.7,1.9C121.3,167.1,121.3,171.3,118.8,173.8z M166,146.3c-2.6,2.6-6.8,2.6-9.3,0l-11-11
				l-1.8,1.8l13.6,13.6c2.6,2.6,2.6,6.8,0,9.3c-2.6,2.6-6.8,2.6-9.3,0l-0.1,0.1c-0.7-0.8-2.4-2.5-6.9-7l-7-7l-1.8,1.8l12.6,12.6
				c1.2,1.2,1.9,2.9,1.9,4.7s-0.7,3.4-1.9,4.7c-2.6,2.6-6.8,2.6-9.3,0L122.7,157l-1.8,1.8l9.6,9.6c1.2,1.2,1.9,2.9,1.9,4.7
				c0,1.8-0.7,3.4-1.9,4.7c-1.2,1.2-2.9,1.9-4.7,1.9s-3.4-0.7-4.7-1.9l-1.4-1.4l0.7-0.7c3.6-3.6,3.6-9.3,0-12.9
				c-2.1-2.1-5.1-3-7.8-2.5c0.4-1.1,0.7-2.3,0.7-3.5c0-2.4-0.9-4.7-2.7-6.4c-2.5-2.5-6.2-3.2-9.3-2.2c0.6-2.9-0.2-6.1-2.5-8.3
				c-3-3-7.6-3.5-11.1-1.4c0-0.2,0-0.5,0-0.7c0-2.4-0.9-4.7-2.7-6.4c-1.7-1.7-4-2.7-6.4-2.7c-2.4,0-4.7,0.9-6.4,2.7
				c0,0-1.6,1.6-2.7,2.7l-19.5-19.5L85,79.6l4.3,4.3l20.8,0c1.8,0,3.5,0.7,4.8,2.1l1.3,1.3l-12.5,12.5c-1.7,1.7-2.7,4-2.7,6.4
				c0,2.4,0.9,4.7,2.7,6.4c1.7,1.7,4,2.7,6.4,2.7c0,0,0,0,0,0c2.4,0,4.7-0.9,6.4-2.7l12.5-12.5l36.8,36.8
				C168.5,139.5,168.5,143.7,166,146.3z M166.5,133.9l-34.3-34.3h9.5v-2.5h-13l-13.8,13.8c-1.2,1.2-2.9,1.9-4.7,1.9c0,0,0,0,0,0
				c-1.8,0-3.4-0.7-4.7-1.9c-1.2-1.2-1.9-2.9-1.9-4.7c0-1.8,0.7-3.4,1.9-4.7l15.7-15.7c1.3-1.3,2.9-2,4.7-2l20.8,0l4.3-4.3
				l34.9,34.9L166.5,133.9z M155.2,68.9L171.1,53l43.4,43.4l-15.9,15.9L155.2,68.9z"/>
		</g>
	</g>
</g>
</svg>
