<?xml version="1.0" encoding="UTF-8"?>
<svg id="outlined" xmlns="http://www.w3.org/2000/svg" viewBox="0 0 240 240">
  <defs>
    <style>
      .cls-1 {
        fill: #2ce0bf;
      }

      .cls-1, .cls-2, .cls-3, .cls-4 {
        stroke-width: 0px;
      }

      .cls-2 {
        fill: #1a2733;
      }

      .cls-3 {
        fill: #89d1ff;
      }

      .cls-4 {
        fill: #0070f2;
      }
    </style>
  </defs>
  <path class="cls-2" d="M215.68,83.65l-34.39-34.03v-.06H55.41v.03l-34.82,34.06h.17l-.06.05,97.73,122.69,97.21-122.55-.23-.19h.27ZM118.35,199.44l-30.19-115.79h59.81l-29.62,115.79ZM89.58,81.15l28.58-28.05,28.38,28.05h-56.96ZM209.6,81.15h-56.96l28.61-28.05,28.34,28.05ZM178.74,52.06l-29.15,28.58-28.92-28.58h58.07ZM115.64,52.06l-28.93,28.4-28.79-28.4h57.72ZM55.4,53.09l28.45,28.06h-11.34l-12.18-3.63-5.23-14.25-5.09,14.31-12.4,3.56h-10.88l28.69-28.06ZM64.09,83.65l-5.68,1.63-3.28,9.32-3.19-9.25-5.93-1.7-4.03-1.16,4.68-1.34,5.27-1.51,3.2-9,3.28,8.93,5.34,1.59,4.44,1.32-4.1,1.18ZM23.86,83.65h13.09l13.05,3.75,5.1,14.8,5.23-14.87,12.81-3.68h12.44l30.03,115.17L23.86,83.65ZM121.01,199.1l29.54-115.45h62.05l-91.58,115.45Z"/>
  <polygon class="cls-3" points="146.54 81.15 118.16 53.09 89.58 81.15 146.54 81.15"/>
  <polygon class="cls-4" points="209.6 81.15 181.25 53.09 152.64 81.15 209.6 81.15"/>
  <polygon class="cls-1" points="63.75 81.15 58.41 79.56 55.13 70.63 51.93 79.63 46.66 81.15 41.98 82.49 46 83.65 51.94 85.35 55.12 94.59 58.4 85.28 64.09 83.65 68.19 82.47 63.75 81.15"/>
</svg>