<?xml version="1.0" encoding="UTF-8"?>
<svg xmlns="http://www.w3.org/2000/svg" version="1.1" viewBox="0 0 240 240">
  <defs>
    <style>
      .cls-1 {
        fill: #c9dce3;
      }

      .cls-1, .cls-2, .cls-3, .cls-4 {
        stroke-width: 0px;
      }

      .cls-5, .cls-6, .cls-7, .cls-8, .cls-9, .cls-10, .cls-11 {
        stroke-miterlimit: 10;
      }

      .cls-5, .cls-6, .cls-10, .cls-11 {
        stroke: #1a2733;
        stroke-width: 2.5px;
      }

      .cls-5, .cls-4 {
        fill: #89d1ff;
      }

      .cls-2, .cls-11 {
        fill: #1b90ff;
      }

      .cls-6 {
        fill: #fff;
      }

      .cls-3 {
        fill: #1a2733;
      }

      .cls-7 {
        stroke-width: .2px;
      }

      .cls-7, .cls-8, .cls-9 {
        stroke: #ced1d2;
      }

      .cls-7, .cls-8, .cls-9, .cls-10 {
        fill: none;
      }

      .cls-8 {
        stroke-width: .2px;
      }

      .cls-9 {
        stroke-width: .2px;
      }

      .cls-12 {
        display: none;
      }
    </style>
  </defs>
  <g id="Grid" class="cls-12">
    <g>
      <circle class="cls-7" cx="120" cy="120" r="92.4"/>
      <g>
        <rect class="cls-1" x="0" y=".3" width="15.7" height="239.7"/>
        <rect class="cls-1" x="224.2" y=".3" width="15.6" height="239.7"/>
        <rect class="cls-1" x="112" y="-112" width="15.7" height="239.7" transform="translate(127.8 -112) rotate(90)"/>
        <rect class="cls-1" x="112" y="112.2" width="15.8" height="239.7" transform="translate(352 112.2) rotate(90)"/>
      </g>
      <g>
        <rect class="cls-9" x=".1" y=".1" width="239.8" height="239.8"/>
        <line class="cls-9" x1=".1" y1="236" x2="239.9" y2="236"/>
        <line class="cls-9" x1=".1" y1="232" x2="239.9" y2="232"/>
        <line class="cls-9" x1=".1" y1="228.1" x2="239.9" y2="228.1"/>
        <line class="cls-9" x1=".1" y1="224.2" x2="239.9" y2="224.2"/>
        <line class="cls-9" x1=".1" y1="220.2" x2="239.9" y2="220.2"/>
        <line class="cls-9" x1=".1" y1="216.3" x2="239.9" y2="216.3"/>
        <line class="cls-9" x1=".1" y1="212.4" x2="239.9" y2="212.4"/>
        <line class="cls-9" x1=".1" y1="208.4" x2="239.9" y2="208.4"/>
        <line class="cls-9" x1=".1" y1="204.5" x2="239.9" y2="204.5"/>
        <line class="cls-9" x1=".1" y1="200.6" x2="239.9" y2="200.6"/>
        <line class="cls-9" x1=".1" y1="196.7" x2="239.9" y2="196.7"/>
        <line class="cls-9" x1=".1" y1="192.7" x2="239.9" y2="192.7"/>
        <line class="cls-9" x1=".1" y1="188.8" x2="239.9" y2="188.8"/>
        <line class="cls-9" x1=".1" y1="184.9" x2="239.9" y2="184.9"/>
        <line class="cls-9" x1=".1" y1="180.9" x2="239.9" y2="180.9"/>
        <line class="cls-9" x1=".1" y1="177" x2="239.9" y2="177"/>
        <line class="cls-9" x1=".1" y1="173.1" x2="239.9" y2="173.1"/>
        <line class="cls-9" x1=".1" y1="169.1" x2="239.9" y2="169.1"/>
        <line class="cls-9" x1=".1" y1="165.2" x2="239.9" y2="165.2"/>
        <line class="cls-9" x1=".1" y1="161.3" x2="239.9" y2="161.3"/>
        <line class="cls-9" x1=".1" y1="157.3" x2="239.9" y2="157.3"/>
        <line class="cls-9" x1=".1" y1="153.4" x2="239.9" y2="153.4"/>
        <line class="cls-9" x1=".1" y1="149.5" x2="239.9" y2="149.5"/>
        <line class="cls-9" x1=".1" y1="145.6" x2="239.9" y2="145.6"/>
        <line class="cls-9" x1=".1" y1="141.6" x2="239.9" y2="141.6"/>
        <line class="cls-9" x1=".1" y1="137.7" x2="239.9" y2="137.7"/>
        <line class="cls-9" x1=".1" y1="133.8" x2="239.9" y2="133.8"/>
        <line class="cls-9" x1=".1" y1="129.8" x2="239.9" y2="129.8"/>
        <line class="cls-9" x1=".1" y1="125.9" x2="239.9" y2="125.9"/>
        <line class="cls-9" x1=".1" y1="122" x2="239.9" y2="122"/>
        <line class="cls-8" x1=".1" y1="118" x2="239.9" y2="118"/>
        <line class="cls-9" x1=".1" y1="114.1" x2="239.9" y2="114.1"/>
        <line class="cls-9" x1=".1" y1="110.2" x2="239.9" y2="110.2"/>
        <line class="cls-9" x1=".1" y1="106.2" x2="239.9" y2="106.2"/>
        <line class="cls-9" x1=".1" y1="102.3" x2="239.9" y2="102.3"/>
        <line class="cls-9" x1=".1" y1="98.4" x2="239.9" y2="98.4"/>
        <line class="cls-9" x1=".1" y1="94.5" x2="239.9" y2="94.5"/>
        <line class="cls-9" x1=".1" y1="90.5" x2="239.9" y2="90.5"/>
        <line class="cls-9" x1=".1" y1="86.6" x2="239.9" y2="86.6"/>
        <line class="cls-9" x1=".1" y1="82.7" x2="239.9" y2="82.7"/>
        <line class="cls-9" x1=".1" y1="78.7" x2="239.9" y2="78.7"/>
        <line class="cls-9" x1=".1" y1="74.8" x2="239.9" y2="74.8"/>
        <line class="cls-9" x1=".1" y1="70.9" x2="239.9" y2="70.9"/>
        <line class="cls-9" x1=".1" y1="66.9" x2="239.9" y2="66.9"/>
        <line class="cls-9" x1=".1" y1="63" x2="239.9" y2="63"/>
        <line class="cls-9" x1=".1" y1="59.1" x2="239.9" y2="59.1"/>
        <line class="cls-9" x1=".1" y1="55.2" x2="239.9" y2="55.2"/>
        <line class="cls-9" x1=".1" y1="51.2" x2="239.9" y2="51.2"/>
        <line class="cls-9" x1=".1" y1="47.3" x2="239.9" y2="47.3"/>
        <line class="cls-9" x1=".1" y1="43.4" x2="239.9" y2="43.4"/>
        <line class="cls-9" x1=".1" y1="39.4" x2="239.9" y2="39.4"/>
        <line class="cls-9" x1=".1" y1="35.5" x2="239.9" y2="35.5"/>
        <line class="cls-8" x1=".1" y1="31.6" x2="239.9" y2="31.6"/>
        <line class="cls-9" x1=".1" y1="27.6" x2="239.9" y2="27.6"/>
        <line class="cls-9" x1=".1" y1="23.7" x2="239.9" y2="23.7"/>
        <line class="cls-9" x1=".1" y1="19.8" x2="239.9" y2="19.8"/>
        <line class="cls-9" x1=".1" y1="15.8" x2="239.9" y2="15.8"/>
        <line class="cls-9" x1=".1" y1="11.9" x2="239.9" y2="11.9"/>
        <line class="cls-9" x1=".1" y1="8" x2="239.9" y2="8"/>
        <line class="cls-9" x1=".1" y1="4.1" x2="239.9" y2="4.1"/>
        <line class="cls-9" x1="236" y1=".1" x2="236" y2="239.9"/>
        <line class="cls-9" x1="232" y1=".1" x2="232" y2="239.9"/>
        <line class="cls-9" x1="228.1" y1=".1" x2="228.1" y2="239.9"/>
        <line class="cls-9" x1="224.2" y1=".1" x2="224.2" y2="239.9"/>
        <line class="cls-9" x1="220.2" y1=".1" x2="220.2" y2="239.9"/>
        <line class="cls-9" x1="216.3" y1=".1" x2="216.3" y2="239.9"/>
        <line class="cls-9" x1="212.4" y1=".1" x2="212.4" y2="239.9"/>
        <line class="cls-9" x1="208.4" y1=".1" x2="208.4" y2="239.9"/>
        <line class="cls-9" x1="204.5" y1=".1" x2="204.5" y2="239.9"/>
        <line class="cls-9" x1="200.6" y1=".1" x2="200.6" y2="239.9"/>
        <line class="cls-9" x1="196.6" y1=".1" x2="196.6" y2="239.9"/>
        <line class="cls-9" x1="192.7" y1=".1" x2="192.7" y2="239.9"/>
        <line class="cls-9" x1="188.8" y1=".1" x2="188.8" y2="239.9"/>
        <line class="cls-9" x1="184.9" y1=".1" x2="184.9" y2="239.9"/>
        <line class="cls-9" x1="180.9" y1=".1" x2="180.9" y2="239.9"/>
        <line class="cls-9" x1="177" y1=".1" x2="177" y2="239.9"/>
        <line class="cls-9" x1="173.1" y1=".1" x2="173.1" y2="239.9"/>
        <line class="cls-9" x1="169.1" y1=".1" x2="169.1" y2="239.9"/>
        <line class="cls-9" x1="165.2" y1=".1" x2="165.2" y2="239.9"/>
        <line class="cls-9" x1="161.3" y1=".1" x2="161.3" y2="239.9"/>
        <line class="cls-9" x1="157.3" y1=".1" x2="157.3" y2="239.9"/>
        <line class="cls-9" x1="153.4" y1=".1" x2="153.4" y2="239.9"/>
        <line class="cls-9" x1="149.5" y1=".1" x2="149.5" y2="239.9"/>
        <line class="cls-9" x1="145.5" y1=".1" x2="145.5" y2="239.9"/>
        <line class="cls-9" x1="141.6" y1=".1" x2="141.6" y2="239.9"/>
        <line class="cls-9" x1="137.7" y1=".1" x2="137.7" y2="239.9"/>
        <line class="cls-9" x1="133.8" y1=".1" x2="133.8" y2="239.9"/>
        <line class="cls-9" x1="129.8" y1=".1" x2="129.8" y2="239.9"/>
        <line class="cls-9" x1="125.9" y1=".1" x2="125.9" y2="239.9"/>
        <line class="cls-9" x1="122" y1=".1" x2="122" y2="239.9"/>
        <line class="cls-9" x1="118" y1=".1" x2="118" y2="239.9"/>
        <line class="cls-9" x1="114.1" y1=".1" x2="114.1" y2="239.9"/>
        <line class="cls-9" x1="110.2" y1=".1" x2="110.2" y2="239.9"/>
        <line class="cls-9" x1="106.2" y1=".1" x2="106.2" y2="239.9"/>
        <line class="cls-9" x1="102.3" y1=".1" x2="102.3" y2="239.9"/>
        <line class="cls-9" x1="98.4" y1=".1" x2="98.4" y2="239.9"/>
        <line class="cls-9" x1="94.5" y1=".1" x2="94.5" y2="239.9"/>
        <line class="cls-9" x1="90.5" y1=".1" x2="90.5" y2="239.9"/>
        <line class="cls-9" x1="86.6" y1=".1" x2="86.6" y2="239.9"/>
        <line class="cls-9" x1="82.7" y1=".1" x2="82.7" y2="239.9"/>
        <line class="cls-9" x1="78.7" y1=".1" x2="78.7" y2="239.9"/>
        <line class="cls-9" x1="74.8" y1=".1" x2="74.8" y2="239.9"/>
        <line class="cls-9" x1="70.9" y1=".1" x2="70.9" y2="239.9"/>
        <line class="cls-9" x1="66.9" y1=".1" x2="66.9" y2="239.9"/>
        <line class="cls-9" x1="63" y1=".1" x2="63" y2="239.9"/>
        <line class="cls-9" x1="59.1" y1=".1" x2="59.1" y2="239.9"/>
        <line class="cls-9" x1="55.1" y1=".1" x2="55.1" y2="239.9"/>
        <line class="cls-9" x1="51.2" y1=".1" x2="51.2" y2="239.9"/>
        <line class="cls-9" x1="47.3" y1=".1" x2="47.3" y2="239.9"/>
        <line class="cls-9" x1="43.4" y1=".1" x2="43.4" y2="239.9"/>
        <line class="cls-9" x1="39.4" y1=".1" x2="39.4" y2="239.9"/>
        <line class="cls-9" x1="35.5" y1=".1" x2="35.5" y2="239.9"/>
        <line class="cls-9" x1="31.6" y1=".1" x2="31.6" y2="239.9"/>
        <line class="cls-9" x1="27.6" y1=".1" x2="27.6" y2="239.9"/>
        <line class="cls-9" x1="23.7" y1=".1" x2="23.7" y2="239.9"/>
        <line class="cls-9" x1="19.8" y1=".1" x2="19.8" y2="239.9"/>
        <line class="cls-9" x1="15.8" y1=".1" x2="15.8" y2="239.9"/>
        <line class="cls-9" x1="11.9" y1=".1" x2="11.9" y2="239.9"/>
        <line class="cls-9" x1="8" y1=".1" x2="8" y2="239.9"/>
        <line class="cls-9" x1="4" y1=".1" x2="4" y2="239.9"/>
      </g>
    </g>
  </g>
  <g id="Live_Stroke" data-name="Live Stroke" class="cls-12">
    <g>
      <rect class="cls-11" x="27.6" y="63" width="90.4" height="129.7"/>
      <rect class="cls-11" x="118" y="63" width="90.4" height="129.7" transform="translate(326.5 255.7) rotate(-180)"/>
      <path class="cls-6" d="M104.3,63H39.4v114h64.9c7.5,0,13.8,6,13.8,13.4v-113.6c0-7.6-6.2-13.8-13.8-13.8Z"/>
      <path class="cls-6" d="M196.6,63h-64.9c-7.6,0-13.8,6.2-13.8,13.8v113.5c0-7.5,6.3-13.3,13.8-13.3h64.8V63Z"/>
      <path class="cls-6" d="M131.8,51.2c-7.6,0-13.8,6.2-13.8,13.8v112h0c0-6.7,6.8-11.8,13.8-11.8h64.8V51.2s-64.8,0-64.8,0Z"/>
      <path class="cls-6" d="M118,65c0-7.6-6.2-13.8-13.8-13.8H39.4v114h64.9c6.9,0,13.8,5.3,13.8,11.8h0v-112Z"/>
      <g>
        <line class="cls-10" x1="102.3" y1="129.8" x2="55.1" y2="129.8"/>
        <line class="cls-10" x1="102.3" y1="110.2" x2="55.1" y2="110.2"/>
        <line class="cls-10" x1="102.3" y1="90.5" x2="55.1" y2="90.5"/>
        <line class="cls-10" x1="102.3" y1="70.9" x2="55.1" y2="70.9"/>
      </g>
      <rect class="cls-5" x="145.5" y="43.4" width="19.7" height="86.5"/>
    </g>
  </g>
  <g id="Story_Book" data-name="Story/Book">
    <g>
      <g>
        <rect class="cls-3" x="55.1" y="128.6" width="47.2" height="2.5"/>
        <rect class="cls-3" x="55.1" y="108.9" width="47.2" height="2.5"/>
        <rect class="cls-3" x="55.1" y="89.3" width="47.2" height="2.5"/>
        <rect class="cls-3" x="55.1" y="69.6" width="47.2" height="2.5"/>
      </g>
      <path class="cls-2" d="M196.6,63v114h-64.9c-7.5,0-13.8,5.8-13.8,13.3v2.4h90.4V63h-11.8Z"/>
      <path class="cls-2" d="M104.3,177H39.4V63h-11.8v129.7h90.4v-2.4c0-7.4-6.3-13.4-13.8-13.4Z"/>
      <rect class="cls-4" x="145.5" y="43.4" width="19.7" height="86.5"/>
      <path class="cls-3" d="M197.9,61.8v-11.8s-31.4,0-31.4,0v-7.9h-22.2v7.9h-12.5c-6.1,0-11.4,3.7-13.7,9-2.3-5.3-7.6-9-13.8-9H38.2v11.8s-11.8,0-11.8,0v132.2h183.3V61.8h-11.8ZM195.4,175.7h-63.6c-5.2,0-9.8,2.6-12.5,6.5v-5.3c0-6.2,6.6-10.5,12.5-10.5h63.6v9.3ZM116.8,182.3c-2.7-3.9-7.3-6.5-12.5-6.5h-63.6v-9.3h63.6c6.5,0,12.5,5,12.5,10.5v5.3ZM146.8,44.6h17.2v84h-17.2V44.6ZM131.8,52.5h12.5v78.6h22.2V52.5h28.9v111.5h-63.6c-5.5,0-9.9,2.6-12.5,6v-105c0-6.9,5.6-12.5,12.5-12.5ZM104.3,52.5c6.9,0,12.5,5.6,12.5,12.5v105c-2.7-3.6-7.4-6-12.5-6h-63.6V52.5s63.6,0,63.6,0ZM116.8,191.5H28.9v-127.2h9.3v114h66.1c6.9,0,12.5,5.4,12.5,12.1v1.1ZM207.2,191.5h-87.9v-1.1c0-6.7,5.6-12.1,12.5-12.1h66.1v-114h9.3v127.2Z"/>
    </g>
  </g>
</svg>