<?xml version="1.0" encoding="UTF-8"?>
<svg id="outlined" xmlns="http://www.w3.org/2000/svg" viewBox="0 0 240 240">
  <defs>
    <style>
      .cls-1 {
        fill: none;
      }

      .cls-2 {
        fill: #89d1ff;
      }

      .cls-3 {
        fill: #0070f2;
      }

      .cls-4 {
        fill: #1a2733;
      }
    </style>
  </defs>
  <g>
    <path class="cls-1" d="M69.25,207.19h97.45c2.8,0,5.09-2.28,5.09-5.09v-.29h-107.62v.29c0,2.8,2.28,5.09,5.09,5.09Z"/>
    <circle class="cls-1" cx="118.06" cy="173.04" r="2.67"/>
    <path class="cls-1" d="M152.09,144.28c-.64-18.25-15.67-32.9-34.07-32.9s-33.43,14.65-34.07,32.9h68.13Z"/>
    <path class="cls-1" d="M82.67,199.31h81.33v-49.36c-.01-.41-.2-1.67-.92-2.3-.65-.58-2.16-.84-2.96-.87h-5.5s-1.25,0-1.25,0h-1.25s-68.19,0-68.19,0h-1.25s-1.25,0-1.25,0h-5.59c-.1,0-1.74-.1-2.95.9-.68.56-.77,1.79-.76,2.21v49.42h10.55ZM118.06,167.87c2.85,0,5.17,2.32,5.17,5.17s-2.32,5.17-5.17,5.17-5.17-2.32-5.17-5.17,2.32-5.17,5.17-5.17Z"/>
    <path class="cls-1" d="M140.34,82.62c0-12.31-10-22.32-22.29-22.32s-22.29,10.01-22.29,22.32,10,22.32,22.29,22.32,22.29-10.01,22.29-22.32Z"/>
    <polygon class="cls-4" points="117.96 17.9 30.53 105.32 32.3 107.09 117.96 21.43 203.74 107.09 205.51 105.32 117.96 17.9"/>
    <path class="cls-4" d="M142.84,82.62c0-13.68-11.12-24.82-24.79-24.82s-24.79,11.13-24.79,24.82,11.12,24.82,24.79,24.82,24.79-11.13,24.79-24.82ZM95.75,82.62c0-12.31,10-22.32,22.29-22.32s22.29,10.01,22.29,22.32-10,22.32-22.29,22.32-22.29-10.01-22.29-22.32Z"/>
    <path class="cls-4" d="M118.06,178.22c2.85,0,5.17-2.32,5.17-5.17s-2.32-5.17-5.17-5.17-5.17,2.32-5.17,5.17,2.32,5.17,5.17,5.17ZM118.06,170.37c1.47,0,2.67,1.2,2.67,2.67s-1.2,2.67-2.67,2.67-2.67-1.2-2.67-2.67,1.2-2.67,2.67-2.67Z"/>
    <path class="cls-4" d="M191.67,207.29h-19.45c1.28-1.36,2.07-3.18,2.07-5.19v-2.79h-7.79v-49.38c0-.27-.09-2.68-1.76-4.16-1.53-1.36-4.23-1.49-4.57-1.5h-5.58c-.64-19.62-16.79-35.4-36.57-35.4s-35.93,15.77-36.57,35.4h-5.53c-.11-.01-2.64-.18-4.64,1.47-1.76,1.46-1.68,3.99-1.66,4.2v49.36h-7.96v2.79c0,2.01.79,3.83,2.07,5.19h-19.49v-101.36h-2.5v111.37h152.43v-111.37h-2.5v101.36ZM64.16,202.1v-.29h107.62v.29c0,2.8-2.28,5.09-5.09,5.09h-97.45c-2.8,0-5.09-2.28-5.09-5.09ZM72.13,149.89c-.02-.43.08-1.65.76-2.21,1.2-1,2.84-.9,2.95-.9h5.59s1.25,0,1.25,0h1.25s68.19,0,68.19,0h1.25s1.25,0,1.25,0h5.5c.8.03,2.31.3,2.96.87.72.64.91,1.9.92,2.3v49.36h-91.87v-49.42ZM118.02,111.38c18.4,0,33.43,14.65,34.07,32.9h-68.13c.63-18.24,15.67-32.9,34.07-32.9Z"/>
  </g>
  <path class="cls-2" d="M118.02,111.38c-18.4,0-33.43,14.65-34.07,32.9h68.13c-.64-18.25-15.67-32.9-34.07-32.9Z"/>
  <circle class="cls-3" cx="118.06" cy="173.04" r="2.67"/>
</svg>